<svg id="wave" style="transform:rotate(0deg); transition: 0.3s" viewBox="0 0 1440 100" version="1.1" xmlns="http://www.w3.org/2000/svg"><defs><linearGradient id="sw-gradient-0" x1="0" x2="0" y1="1" y2="0"><stop stop-color="rgba(255, 239, 239, 1)" offset="0%"></stop><stop stop-color="rgba(255, 239, 239, 1)" offset="100%"></stop></linearGradient></defs><path style="transform:translate(0, 0px); opacity:1" fill="url(#sw-gradient-0)" d="M0,50L24,43.3C48,37,96,23,144,26.7C192,30,240,50,288,58.3C336,67,384,63,432,56.7C480,50,528,40,576,38.3C624,37,672,43,720,48.3C768,53,816,57,864,50C912,43,960,27,1008,23.3C1056,20,1104,30,1152,36.7C1200,43,1248,47,1296,53.3C1344,60,1392,70,1440,66.7C1488,63,1536,47,1584,40C1632,33,1680,37,1728,31.7C1776,27,1824,13,1872,13.3C1920,13,1968,27,2016,26.7C2064,27,2112,13,2160,16.7C2208,20,2256,40,2304,48.3C2352,57,2400,53,2448,45C2496,37,2544,23,2592,30C2640,37,2688,63,2736,65C2784,67,2832,43,2880,43.3C2928,43,2976,67,3024,63.3C3072,60,3120,30,3168,26.7C3216,23,3264,47,3312,60C3360,73,3408,77,3432,78.3L3456,80L3456,100L3432,100C3408,100,3360,100,3312,100C3264,100,3216,100,3168,100C3120,100,3072,100,3024,100C2976,100,2928,100,2880,100C2832,100,2784,100,2736,100C2688,100,2640,100,2592,100C2544,100,2496,100,2448,100C2400,100,2352,100,2304,100C2256,100,2208,100,2160,100C2112,100,2064,100,2016,100C1968,100,1920,100,1872,100C1824,100,1776,100,1728,100C1680,100,1632,100,1584,100C1536,100,1488,100,1440,100C1392,100,1344,100,1296,100C1248,100,1200,100,1152,100C1104,100,1056,100,1008,100C960,100,912,100,864,100C816,100,768,100,720,100C672,100,624,100,576,100C528,100,480,100,432,100C384,100,336,100,288,100C240,100,192,100,144,100C96,100,48,100,24,100L0,100Z"></path></svg>